<svg width="23" height="23" viewBox="0 0 23 23" fill="none" xmlns="http://www.w3.org/2000/svg">
<path d="M3.76458 20.8253H18.4075V18.995C18.4075 16.9816 15.1128 15.3343 11.086 15.3343C7.05923 15.3343 3.76458 16.9816 3.76458 18.995M14.7467 8.92799H7.4253V9.84317C7.4253 11.8566 9.07263 13.5039 11.086 13.5039C13.0994 13.5039 14.7467 11.8566 14.7467 9.84317M4.67976 4.35208C5.22887 4.35208 5.59494 4.71815 5.59494 5.26726V6.18244H6.96771L8.24896 3.4369C8.34048 3.25386 8.432 3.07083 8.61504 2.97931C9.07263 2.52172 9.80477 2.4302 10.4454 2.70476L11.086 2.88779L11.7267 2.61324C12.3673 2.33868 13.0994 2.4302 13.557 2.88779C13.74 3.07083 13.8316 3.25386 13.9231 3.4369L15.2043 6.18244H16.5771V5.26726C16.5771 4.71815 16.9432 4.35208 17.4923 4.35208C18.0414 4.35208 18.4075 4.71815 18.4075 5.26726V6.18244C18.4075 7.18914 17.5838 8.0128 16.5771 8.0128H5.59494C4.58824 8.0128 3.76458 7.18914 3.76458 6.18244V5.26726C3.76458 4.80967 4.13065 4.35208 4.67976 4.35208Z" fill="#F4F4F4"/>
</svg>
