<svg width="23" height="23" viewBox="0 0 23 23" fill="none" xmlns="http://www.w3.org/2000/svg">
<path d="M16.5846 16.7071L9.72077 13.504L6.51764 6.6401L13.3815 9.84324L16.5846 16.7071ZM11.5511 12.5888C11.8104 12.5888 12.0276 12.5009 12.2027 12.3252C12.3785 12.1501 12.4663 11.9329 12.4663 11.6736C12.4663 11.4143 12.3785 11.1968 12.2027 11.0211C12.0276 10.846 11.8104 10.7584 11.5511 10.7584C11.2918 10.7584 11.0743 10.846 10.8986 11.0211C10.7235 11.1968 10.636 11.4143 10.636 11.6736C10.636 11.9329 10.7235 12.1501 10.8986 12.3252C11.0743 12.5009 11.2918 12.5888 11.5511 12.5888ZM11.5511 20.8254C12.8171 20.8254 14.0069 20.585 15.1203 20.1042C16.2338 19.6241 17.2024 18.9722 18.026 18.1485C18.8497 17.3248 19.5016 16.3563 19.9818 15.2428C20.4626 14.1293 20.7029 12.9396 20.7029 11.6736C20.7029 10.4076 20.4626 9.21786 19.9818 8.10439C19.5016 6.99092 18.8497 6.02236 18.026 5.19869C17.2024 4.37503 16.2338 3.72281 15.1203 3.24204C14.0069 2.76187 12.8171 2.52179 11.5511 2.52179C10.2851 2.52179 9.0954 2.76187 7.98193 3.24204C6.86846 3.72281 5.89989 4.37503 5.07623 5.19869C4.25257 6.02236 3.60065 6.99092 3.12049 8.10439C2.63971 9.21786 2.39933 10.4076 2.39933 11.6736C2.39933 12.9396 2.63971 14.1293 3.12049 15.2428C3.60065 16.3563 4.25257 17.3248 5.07623 18.1485C5.89989 18.9722 6.86846 19.6241 7.98193 20.1042C9.0954 20.585 10.2851 20.8254 11.5511 20.8254Z" fill="#F4F4F4"/>
</svg>
