<svg width="23" height="23" viewBox="0 0 23 23" fill="none" xmlns="http://www.w3.org/2000/svg">
<path d="M5.82044 3.28498C5.04026 3.28498 4.29204 3.5949 3.74037 4.14657C3.18871 4.69824 2.87878 5.44646 2.87878 6.22663V8.97218C2.87878 9.12821 2.94077 9.27785 3.0511 9.38819C3.16144 9.49852 3.31108 9.56051 3.46711 9.56051C3.62315 9.56051 3.77279 9.49852 3.88313 9.38819C3.99346 9.27785 4.05545 9.12821 4.05545 8.97218V6.22663C4.05545 5.75853 4.2414 5.3096 4.5724 4.9786C4.9034 4.6476 5.35233 4.46164 5.82044 4.46164H8.56676C8.7228 4.46164 8.87244 4.39966 8.98278 4.28932C9.09311 4.17899 9.15509 4.02935 9.15509 3.87331C9.15509 3.71728 9.09311 3.56763 8.98278 3.4573C8.87244 3.34697 8.7228 3.28498 8.56676 3.28498H5.82044ZM14.4493 3.28498C14.2932 3.28498 14.1436 3.34697 14.0333 3.4573C13.9229 3.56763 13.861 3.71728 13.861 3.87331C13.861 4.02935 13.9229 4.17899 14.0333 4.28932C14.1436 4.39966 14.2932 4.46164 14.4493 4.46164H17.1948C17.6629 4.46164 18.1119 4.6476 18.4429 4.9786C18.7739 5.3096 18.9598 5.75853 18.9598 6.22663V8.97218C18.9598 9.12821 19.0218 9.27785 19.1321 9.38819C19.2425 9.49852 19.3921 9.56051 19.5481 9.56051C19.7042 9.56051 19.8538 9.49852 19.9642 9.38819C20.0745 9.27785 20.1365 9.12821 20.1365 8.97218V6.22663C20.1365 5.44646 19.8266 4.69824 19.2749 4.14657C18.7232 3.5949 17.975 3.28498 17.1948 3.28498H14.4493ZM4.05545 14.8555C4.05545 14.6994 3.99346 14.5498 3.88313 14.4395C3.77279 14.3291 3.62315 14.2671 3.46711 14.2671C3.31108 14.2671 3.16144 14.3291 3.0511 14.4395C2.94077 14.5498 2.87878 14.6994 2.87878 14.8555V17.601C2.87878 18.3812 3.18871 19.1294 3.74037 19.6811C4.29204 20.2328 5.04026 20.5427 5.82044 20.5427H8.56598C8.72201 20.5427 8.87166 20.4807 8.98199 20.3704C9.09232 20.26 9.15431 20.1104 9.15431 19.9543C9.15431 19.7983 9.09232 19.6487 8.98199 19.5383C8.87166 19.428 8.72201 19.366 8.56598 19.366H5.82044C5.35233 19.366 4.9034 19.1801 4.5724 18.8491C4.2414 18.5181 4.05545 18.0691 4.05545 17.601V14.8555ZM20.1365 14.8555C20.1365 14.6994 20.0745 14.5498 19.9642 14.4395C19.8538 14.3291 19.7042 14.2671 19.5481 14.2671C19.3921 14.2671 19.2425 14.3291 19.1321 14.4395C19.0218 14.5498 18.9598 14.6994 18.9598 14.8555V17.601C18.9598 18.0691 18.7739 18.5181 18.4429 18.8491C18.1119 19.1801 17.6629 19.366 17.1948 19.366H14.4493C14.2932 19.366 14.1436 19.428 14.0333 19.5383C13.9229 19.6487 13.861 19.7983 13.861 19.9543C13.861 20.1104 13.9229 20.26 14.0333 20.3704C14.1436 20.4807 14.2932 20.5427 14.4493 20.5427H17.1948C17.975 20.5427 18.7232 20.2328 19.2749 19.6811C19.8266 19.1294 20.1365 18.3812 20.1365 17.601V14.8555ZM6.9971 11.3255C6.84106 11.3255 6.69142 11.3875 6.58108 11.4978C6.47075 11.6081 6.40877 11.7578 6.40877 11.9138C6.40877 12.0699 6.47075 12.2195 6.58108 12.3298C6.69142 12.4402 6.84106 12.5022 6.9971 12.5022H16.0182C16.1742 12.5022 16.3238 12.4402 16.4342 12.3298C16.5445 12.2195 16.6065 12.0699 16.6065 11.9138C16.6065 11.7578 16.5445 11.6081 16.4342 11.4978C16.3238 11.3875 16.1742 11.3255 16.0182 11.3255H6.9971Z" fill="#1E232A"/>
</svg>
