<svg width="23" height="23" viewBox="0 0 23 23" fill="none" xmlns="http://www.w3.org/2000/svg">
<path d="M16.9615 15.899L20.8813 19.8178L19.5863 21.1128L15.6675 17.1931C14.2094 18.3619 12.3957 18.9977 10.5269 18.995C5.98029 18.995 2.29028 15.305 2.29028 10.7584C2.29028 6.2118 5.98029 2.52179 10.5269 2.52179C15.0735 2.52179 18.7635 6.2118 18.7635 10.7584C18.7662 12.6272 18.1304 14.4409 16.9615 15.899ZM15.1257 15.2199C16.2872 14.0255 16.9358 12.4244 16.9332 10.7584C16.9332 7.2185 14.0659 4.35215 10.5269 4.35215C6.98699 4.35215 4.12064 7.2185 4.12064 10.7584C4.12064 14.2974 6.98699 17.1647 10.5269 17.1647C12.1929 17.1673 13.794 16.5187 14.9884 15.3572L15.1257 15.2199Z" fill="#F4F4F4"/>
</svg>
